<svg xmlns="http://www.w3.org/2000/svg" width="132" height="42" viewBox="0 0 132 42" fill="none">
<path d="M54.8321 27.0239H46.6841L45.2841 30.9999H41.9521L48.9241 11.5119H52.6201L59.5921 30.9999H56.2321L54.8321 27.0239ZM53.9361 24.4199L50.7721 15.3759L47.5802 24.4199H53.9361ZM65.8155 17.8399C66.3569 17.1306 67.0942 16.5333 68.0275 16.0479C68.9609 15.5626 70.0155 15.3199 71.1915 15.3199C72.5355 15.3199 73.7582 15.6559 74.8595 16.3279C75.9795 16.9813 76.8569 17.9053 77.4916 19.0999C78.1263 20.2946 78.4435 21.6666 78.4435 23.2159C78.4435 24.7653 78.1263 26.1559 77.4916 27.3879C76.8569 28.6013 75.9795 29.5533 74.8595 30.2439C73.7582 30.9159 72.5355 31.2519 71.1915 31.2519C70.0155 31.2519 68.9702 31.0186 68.0555 30.5519C67.1409 30.0666 66.3942 29.4693 65.8155 28.7599V38.3359H62.6236V15.5719H65.8155V17.8399ZM75.1955 23.2159C75.1955 22.1519 74.9715 21.2373 74.5235 20.4719C74.0942 19.6879 73.5155 19.0999 72.7875 18.7079C72.0782 18.2973 71.313 18.0919 70.4916 18.0919C69.6889 18.0919 68.9235 18.2973 68.1955 18.7079C67.4862 19.1186 66.9075 19.7159 66.4595 20.4999C66.0302 21.2839 65.8155 22.2079 65.8155 23.2719C65.8155 24.3359 66.0302 25.2693 66.4595 26.0719C66.9075 26.8559 67.4862 27.4533 68.1955 27.8639C68.9235 28.2746 69.6889 28.4799 70.4916 28.4799C71.313 28.4799 72.0782 28.2746 72.7875 27.8639C73.5155 27.4346 74.0942 26.8186 74.5235 26.0159C74.9715 25.2133 75.1955 24.2799 75.1955 23.2159ZM84.7921 17.8399C85.3335 17.1306 86.0708 16.5333 87.0041 16.0479C87.9374 15.5626 88.9921 15.3199 90.1681 15.3199C91.5121 15.3199 92.7348 15.6559 93.8361 16.3279C94.9561 16.9813 95.8335 17.9053 96.4682 19.0999C97.1029 20.2946 97.4201 21.6666 97.4201 23.2159C97.4201 24.7653 97.1029 26.1559 96.4682 27.3879C95.8335 28.6013 94.9561 29.5533 93.8361 30.2439C92.7348 30.9159 91.5121 31.2519 90.1681 31.2519C88.9921 31.2519 87.9468 31.0186 87.0321 30.5519C86.1174 30.0666 85.3708 29.4693 84.7921 28.7599V38.3359H81.6001V15.5719H84.7921V17.8399ZM94.1721 23.2159C94.1721 22.1519 93.9482 21.2373 93.5001 20.4719C93.0709 19.6879 92.4921 19.0999 91.7641 18.7079C91.0548 18.2973 90.2895 18.0919 89.4682 18.0919C88.6655 18.0919 87.9001 18.2973 87.1721 18.7079C86.4628 19.1186 85.8841 19.7159 85.4361 20.4999C85.0068 21.2839 84.7921 22.2079 84.7921 23.2719C84.7921 24.3359 85.0068 25.2693 85.4361 26.0719C85.8841 26.8559 86.4628 27.4533 87.1721 27.8639C87.9001 28.2746 88.6655 28.4799 89.4682 28.4799C90.2895 28.4799 91.0548 28.2746 91.7641 27.8639C92.4921 27.4346 93.0709 26.8186 93.5001 26.0159C93.9482 25.2133 94.1721 24.2799 94.1721 23.2159ZM102.201 13.5279C101.622 13.5279 101.137 13.3319 100.745 12.9399C100.353 12.5479 100.157 12.0626 100.157 11.4839C100.157 10.9053 100.353 10.4199 100.745 10.0279C101.137 9.63594 101.622 9.43994 102.201 9.43994C102.761 9.43994 103.237 9.63594 103.629 10.0279C104.021 10.4199 104.217 10.9053 104.217 11.4839C104.217 12.0626 104.021 12.5479 103.629 12.9399C103.237 13.3319 102.761 13.5279 102.201 13.5279ZM103.769 15.5719V30.9999H100.577V15.5719H103.769ZM111.151 10.2799V30.9999H107.959V10.2799H111.151ZM122.034 31.2519C120.578 31.2519 119.262 30.9253 118.086 30.2719C116.91 29.5999 115.986 28.6666 115.314 27.4719C114.642 26.2586 114.306 24.8586 114.306 23.2719C114.306 21.7039 114.652 20.3133 115.342 19.0999C116.033 17.8866 116.976 16.9533 118.17 16.2999C119.365 15.6466 120.7 15.3199 122.174 15.3199C123.649 15.3199 124.984 15.6466 126.178 16.2999C127.373 16.9533 128.316 17.8866 129.006 19.0999C129.697 20.3133 130.042 21.7039 130.042 23.2719C130.042 24.8399 129.688 26.2306 128.978 27.4439C128.269 28.6573 127.298 29.5999 126.066 30.2719C124.853 30.9253 123.509 31.2519 122.034 31.2519ZM122.034 28.4799C122.856 28.4799 123.621 28.2839 124.33 27.8919C125.058 27.4999 125.646 26.9119 126.094 26.1279C126.542 25.3439 126.766 24.3919 126.766 23.2719C126.766 22.1519 126.552 21.2093 126.122 20.4439C125.693 19.6599 125.124 19.0719 124.414 18.6799C123.705 18.2879 122.94 18.0919 122.118 18.0919C121.297 18.0919 120.532 18.2879 119.822 18.6799C119.132 19.0719 118.581 19.6599 118.17 20.4439C117.76 21.2093 117.554 22.1519 117.554 23.2719C117.554 24.9333 117.974 26.2213 118.814 27.1359C119.673 28.0319 120.746 28.4799 122.034 28.4799Z" fill="black"/>
<path d="M17.459 4L2.79544 17.3529C1.90919 18.1599 1.20616 19.118 0.72652 20.1725C0.246874 21.227 0 22.3573 0 23.4987C0 24.6401 0.246874 25.7703 0.72652 26.8248C1.20616 27.8793 1.90919 28.8375 2.79544 29.6445L3.05774 29.8834C3.92482 30.6719 5.10005 31.1148 6.32536 31.1148C7.55067 31.1148 8.7259 30.6719 9.59298 29.8834L15.9985 24.0469L15.7362 23.7954C15.3072 23.4044 14.7978 23.0942 14.2371 22.8825C13.6765 22.6709 13.0755 22.5619 12.4686 22.5619C11.8616 22.5619 11.2606 22.6709 10.7 22.8825C10.1393 23.0942 9.6299 23.4044 9.20093 23.7954L17.459 16.2741C19.243 14.6449 20.2448 12.4379 20.2448 10.1371C20.2448 7.83613 19.243 5.62914 17.459 4Z" fill="#FFB000"/>
<path d="M29.2061 14.3002L28.9301 14.0614C28.5014 13.6704 27.9922 13.3602 27.4318 13.1486C26.8714 12.937 26.2707 12.8281 25.6641 12.8281C25.0574 12.8281 24.4567 12.937 23.8963 13.1486C23.3359 13.3602 22.8268 13.6704 22.398 14.0614L15.8189 20.0553L16.0811 20.2941C16.5099 20.6851 17.019 20.9953 17.5794 21.2069C18.1398 21.4185 18.7405 21.5274 19.3472 21.5274C19.9538 21.5274 20.5545 21.4185 21.1149 21.2069C21.6753 20.9953 22.1845 20.6851 22.6132 20.2941L14.5495 27.6533C13.6637 28.4602 12.961 29.4181 12.4816 30.4725C12.0021 31.5268 11.7554 32.6568 11.7554 33.7981C11.7554 34.9393 12.0021 36.0693 12.4816 37.1237C12.961 38.178 13.6637 39.136 14.5495 39.9429L29.2061 26.5898C30.0919 25.7829 30.7946 24.8249 31.274 23.7706C31.7534 22.7163 32.0002 21.5862 32.0002 20.445C32.0002 19.3038 31.7534 18.1737 31.274 17.1194C30.7946 16.0651 30.0919 15.1071 29.2061 14.3002Z" fill="#5F2DED"/>
</svg>