<svg xmlns="http://www.w3.org/2000/svg" width="42" height="42" viewBox="0 0 42 42" fill="none">
  <path d="M17.459 4L2.79544 17.3529C1.90919 18.1599 1.20616 19.118 0.72652 20.1725C0.246874 21.227 0 22.3573 0 23.4987C0 24.6401 0.246874 25.7703 0.72652 26.8248C1.20616 27.8793 1.90919 28.8375 2.79544 29.6445L3.05774 29.8834C3.92482 30.6719 5.10005 31.1148 6.32536 31.1148C7.55067 31.1148 8.7259 30.6719 9.59298 29.8834L15.9985 24.0469L15.7362 23.7954C15.3072 23.4044 14.7978 23.0942 14.2371 22.8825C13.6765 22.6709 13.0755 22.5619 12.4686 22.5619C11.8616 22.5619 11.2606 22.6709 10.7 22.8825C10.1393 23.0942 9.6299 23.4044 9.20093 23.7954L17.459 16.2741C19.243 14.6449 20.2448 12.4379 20.2448 10.1371C20.2448 7.83613 19.243 5.62914 17.459 4Z" fill="#FFB000"/>
  <path d="M29.2061 14.3002L28.9301 14.0614C28.5014 13.6704 27.9922 13.3602 27.4318 13.1486C26.8714 12.937 26.2707 12.8281 25.6641 12.8281C25.0574 12.8281 24.4567 12.937 23.8963 13.1486C23.3359 13.3602 22.8268 13.6704 22.398 14.0614L15.8189 20.0553L16.0811 20.2941C16.5099 20.6851 17.019 20.9953 17.5794 21.2069C18.1398 21.4185 18.7405 21.5274 19.3472 21.5274C19.9538 21.5274 20.5545 21.4185 21.1149 21.2069C21.6753 20.9953 22.1845 20.6851 22.6132 20.2941L14.5495 27.6533C13.6637 28.4602 12.961 29.4181 12.4816 30.4725C12.0021 31.5268 11.7554 32.6568 11.7554 33.7981C11.7554 34.9393 12.0021 36.0693 12.4816 37.1237C12.961 38.178 13.6637 39.136 14.5495 39.9429L29.2061 26.5898C30.0919 25.7829 30.7946 24.8249 31.274 23.7706C31.7534 22.7163 32.0002 21.5862 32.0002 20.445C32.0002 19.3038 31.7534 18.1737 31.274 17.1194C30.7946 16.0651 30.0919 15.1071 29.2061 14.3002Z" fill="#5F2DED"/>
</svg>